<svg preserveAspectRatio="none" overflow="visible" style="display: block;" width="13.8113" height="13.8113" viewBox="0 0 13.8113 13.8113" fill="none" xmlns="http://www.w3.org/2000/svg">
<path id="Star 2" d="M4.98582 1.08754C5.85499 -0.362515 7.9563 -0.362514 8.82547 1.08754L9.99819 3.04402C10.1874 3.35971 10.4516 3.62387 10.7673 3.8131L12.7237 4.98582C14.1738 5.85499 14.1738 7.9563 12.7237 8.82547L10.7673 9.99819C10.4516 10.1874 10.1874 10.4516 9.99819 10.7673L8.82547 12.7237C7.9563 14.1738 5.85498 14.1738 4.98582 12.7237L3.8131 10.7673C3.62387 10.4516 3.35971 10.1874 3.04402 9.99819L1.08754 8.82547C-0.362515 7.9563 -0.362514 5.85498 1.08754 4.98582L3.04402 3.8131C3.35971 3.62387 3.62387 3.35971 3.8131 3.04402L4.98582 1.08754Z" fill="#05B959"/>
</svg>
